<svg width="40.000000" height="40.000000" viewBox="0 0 40 40" fill="none" xmlns="http://www.w3.org/2000/svg" xmlns:xlink="http://www.w3.org/1999/xlink">
	<desc>
			Created with Pixso.
	</desc>
	<defs>
		<clipPath id="clip37_220">
			<rect id="cloud-upload-o" width="40.000000" height="40.000000" fill="white" fill-opacity="0"/>
		</clipPath>
	</defs>
	<rect id="cloud-upload-o" width="40.000000" height="40.000000" fill="#FFFFFF" fill-opacity="0"/>
	<g clip-path="url(#clip37_220)">
		<path id="Vector" d="M30.16 24.83C30.16 24.5 30.16 24.16 30.16 23.83C30.16 19.83 27 16.66 23.16 16.66C22.66 16.66 22.16 16.66 21.66 16.83L21.66 13.33L25 13.33L20 6.66L15 13.33L18.33 13.33L18.33 15.83C17.66 15.5 16.83 15.33 16.16 15.33C13.5 15.33 11.33 17.33 11.33 20C11.33 20.5 11.5 21 11.66 21.5C8.99 21.83 6.66 24.5 6.66 27.33C6.66 30.5 9.16 33.33 12.16 33.33L29.33 33.33C31.66 33.33 33.33 31 33.33 29C33.33 27 32 25.33 30.16 24.83ZM29.33 31.66L12.16 31.66C10.16 31.66 8.33 29.66 8.33 27.5C8.33 25.33 10.16 23.33 12.16 23.33C12.33 23.33 12.66 23.33 12.83 23.33L15 23.83L13.66 21.83C13.33 21.33 13 20.66 13 20C13 18.33 14.33 17 16 17C16.83 17 17.66 17.33 18.16 18L18.16 23.33L21.5 23.33L21.5 18.66C22 18.5 22.5 18.5 23 18.5C26 18.5 28.33 21 28.33 24C28.33 24.5 28.33 25 28.16 25.5L27.83 26.5L29.16 26.5C30.33 26.5 31.5 27.66 31.5 29C31.66 30.16 30.66 31.66 29.33 31.66L29.33 31.66Z" fill="#FFFFFF" fill-opacity="1.000000" fill-rule="evenodd"/>
	</g>
</svg>
