<svg width="21.000000" height="12.000000" viewBox="0 0 21 12" fill="none" xmlns="http://www.w3.org/2000/svg" xmlns:xlink="http://www.w3.org/1999/xlink">
	<desc>
			Created with Pixso.
	</desc>
	<defs>
		<clipPath id="clip36_771">
			<rect id="eye" width="21.000000" height="12.000000" fill="white" fill-opacity="0"/>
		</clipPath>
	</defs>
	<rect id="eye" width="21.000000" height="12.000000" fill="#FFFFFF" fill-opacity="0"/>
	<g clip-path="url(#clip36_771)">
		<path id="Vector" d="M10.5 0.5C2.12 0.5 0.5 6.87 0.5 6.87C0.5 6.87 3.25 12 10.37 12C17.5 12 20.5 7 20.5 7C20.5 7 18.87 0.5 10.5 0.5L10.5 0.5ZM7.12 2.37C7.75 2 8.75 2 8.75 2C8.75 2 8.12 3.12 8.12 4C8.12 4.87 8.37 5.37 8.37 5.37L7 5.62C7 5.62 6.62 5 6.62 4.12C6.62 3.12 7.12 2.37 7.12 2.37ZM10.37 10.75C5.25 10.75 2.62 7.87 1.87 6.75C2.25 5.87 3.25 4 5.75 2.75C5.62 3.25 5.5 3.75 5.5 4.37C5.5 7.12 7.75 9.37 10.5 9.37C13.25 9.37 15.5 7.12 15.5 4.37C15.5 3.75 15.37 3.25 15.25 2.75C17.75 3.87 18.75 5.87 19.12 6.75C18.25 7.87 15.62 10.75 10.37 10.75L10.37 10.75Z" fill="#FFFFFF" fill-opacity="1.000000" fill-rule="evenodd"/>
	</g>
</svg>
