<svg width="26.666626" height="21.833344" viewBox="0 0 26.6666 21.8333" fill="none" xmlns="http://www.w3.org/2000/svg" xmlns:xlink="http://www.w3.org/1999/xlink">
	<desc>
			Created with Pixso.
	</desc>
	<defs/>
	<path id="Vector" d="M19.5 0C18 0 15 0.83 13.33 3.5C11.66 0.83 8.66 0 7 0C3.16 0 0 3.16 0 7C0 13.66 12.33 21.16 12.83 21.5L13.33 21.83L13.83 21.5C14.33 21.16 26.66 13.5 26.66 7C26.66 3.16 23.5 0 19.5 0L19.5 0ZM13.33 19.83C9.66 17.5 1.66 11.5 1.66 7C1.66 4 4.16 1.66 7 1.66C7.16 1.66 11.16 1.83 12.5 5.66L13.33 8L14.16 5.66C15.5 1.83 19.5 1.66 19.66 1.66C22.5 1.66 25 4 25 7C25 11.5 17 17.5 13.33 19.83L13.33 19.83Z" fill="#FFFFFF" fill-opacity="1.000000" fill-rule="evenodd"/>
</svg>
