<svg width="154.512207" height="124.517578" viewBox="0 0 154.512 124.518" fill="none" xmlns="http://www.w3.org/2000/svg" xmlns:xlink="http://www.w3.org/1999/xlink">
	<desc>
			Created with Pixso.
	</desc>
	<defs/>
	<path id="Oval 1" d="M48.51 97.01C48.51 85.41 57.91 77.51 69.51 77.51C81.11 77.51 87.51 83.91 87.51 95.51C87.51 107.11 79.61 115.51 68.01 115.51C56.41 115.51 48.51 108.61 48.51 97.01Z" fill="#FF00BF" fill-opacity="1.000000" fill-rule="evenodd"/>
	<path id="Oval 1" d="M86.15 73.21C81.71 70.08 76.16 68.51 69.51 68.51C64.35 68.51 59.69 69.53 55.52 71.56C53.05 72.76 50.76 74.31 48.63 76.23C45.79 78.79 43.62 81.66 42.1 84.85C40.37 88.49 39.51 92.55 39.51 97.01C39.51 102.51 40.71 107.31 43.1 111.41C44.34 113.53 45.91 115.47 47.79 117.21C49.09 118.42 50.48 119.47 51.96 120.38C56.46 123.13 61.81 124.51 68.01 124.51C73.05 124.51 77.57 123.48 81.54 121.42C84.11 120.08 86.46 118.31 88.58 116.11C90.46 114.16 92.01 112.04 93.22 109.74C95.41 105.58 96.51 100.83 96.51 95.51C96.51 88.86 94.94 83.31 91.81 78.87C91.04 77.78 90.18 76.76 89.22 75.8C88.26 74.84 87.24 73.98 86.15 73.21ZM69.51 77.51C57.91 77.51 48.51 85.41 48.51 97.01C48.51 108.61 56.41 115.51 68.01 115.51C79.61 115.51 87.51 107.11 87.51 95.51C87.51 83.91 81.11 77.51 69.51 77.51Z" fill="#FFFFFF" fill-opacity="1.000000" fill-rule="evenodd"/>
	<path id="Polygon 1" d="M75.06 19.77L109.15 70.01C109.85 71.05 111.33 71.19 112.22 70.3L151.69 30.83C152.85 29.67 152.19 27.67 150.57 27.44L77 16.67C75.28 16.42 74.08 18.33 75.06 19.77Z" fill="#FFFFFF" fill-opacity="1.000000" fill-rule="evenodd"/>
	<path id="Polygon 1" d="M97.24 34.24L111.25 53.3C111.93 54.23 113.25 54.39 114.14 53.66L132.43 38.48C133.78 37.36 133.14 35.17 131.39 34.96L99.09 31.07C97.35 30.86 96.21 32.82 97.24 34.24Z" fill="#FBBB43" fill-opacity="1.000000" fill-rule="evenodd"/>
	<path id="Line 1" d="M43.51 6.51L32.01 32.01L22.51 57.51" stroke="#FFFFFF" stroke-opacity="1.000000" stroke-width="13.000000" stroke-linecap="round"/>
	<path id="Line 1" d="M58.31 42.32L32.37 31.85L6.51 23.38" stroke="#FFFFFF" stroke-opacity="1.000000" stroke-width="13.000000" stroke-linecap="round"/>
</svg>
