<svg width="26.662109" height="26.666718" viewBox="0 0 26.6621 26.6667" fill="none" xmlns="http://www.w3.org/2000/svg" xmlns:xlink="http://www.w3.org/1999/xlink">
	<desc>
			Created with Pixso.
	</desc>
	<defs/>
	<path id="Vector" d="M25.32 20C24.23 17.64 21.88 16.04 19.16 16.04C19.03 16.04 18.9 16.04 18.77 16.04L13.32 22.55L7.86 16.04C7.78 16.04 7.68 16.04 7.58 16.04C4.84 16.04 2.46 17.64 1.34 19.95C0.64 21.45 0.16 23.15 0 24.93L3.32 25L3.32 26.66L23.32 26.66L23.32 25L26.66 25C26.48 23.15 26.01 21.46 25.28 19.9L25.32 20Z" fill="#FFFFFF" fill-opacity="1.000000" fill-rule="evenodd"/>
	<path id="Vector" d="M10.94 14.55C10.88 15.17 10.4 15.66 9.8 15.76L13.32 20L16.86 15.8C16.24 15.7 15.77 15.2 15.71 14.58C15.71 13.56 17.04 13.9 18.09 12.16C18.09 12.11 22.89 0 13.32 0C3.76 0 8.56 12.11 8.56 12.11C9.61 13.86 10.96 13.53 10.94 14.55L10.94 14.55Z" fill="#FFFFFF" fill-opacity="1.000000" fill-rule="evenodd"/>
</svg>
