<svg width="40.000000" height="40.000000" viewBox="0 0 40 40" fill="none" xmlns="http://www.w3.org/2000/svg" xmlns:xlink="http://www.w3.org/1999/xlink">
	<desc>
			Created with Pixso.
	</desc>
	<defs>
		<clipPath id="clip35_759">
			<rect id="trash" width="40.000000" height="40.000000" fill="white" fill-opacity="0"/>
		</clipPath>
	</defs>
	<rect id="trash" width="40.000000" height="40.000000" fill="#FFFFFF" fill-opacity="0"/>
	<g clip-path="url(#clip35_759)">
		<path id="Vector" d="M28.33 11.66C28.33 11.66 28.33 10.81 25 10.33L25 9.16C24.97 7.77 23.84 6.66 22.45 6.66L17.45 6.66C16.09 6.69 15 7.8 15 9.16L15 10.33C13.72 10.44 12.58 10.93 11.65 11.67L10 11.66L10 13.33L30 13.33L30 11.66L28.33 11.66ZM16.66 9.16C16.67 8.7 17.04 8.34 17.49 8.33L22.5 8.33L22.5 8.33C22.97 8.33 23.35 8.69 23.38 9.16L23.38 10.1C22.79 10.03 22.11 9.99 21.41 9.99C21.22 9.99 21.03 9.99 20.83 10C19.91 10 17.4 10 16.66 10.11L16.66 9.16L16.66 9.16Z" fill="#FBBB43" fill-opacity="1.000000" fill-rule="evenodd"/>
		<path id="Vector" d="M10 15L10 16.66L11.66 16.66L11.66 31.66C13.72 32.71 16.15 33.33 18.72 33.33C18.73 33.33 18.73 33.33 18.73 33.33L21.26 33.33C21.26 33.33 21.27 33.33 21.27 33.33C23.84 33.33 26.27 32.71 28.42 31.62L28.33 16.66L30 16.66L30 15L10 15L10 15ZM16.66 29.86C16.09 29.8 15.54 29.7 15 29.58L15 18.33L16.66 18.33L16.66 29.86ZM21.66 30L18.33 30L18.33 18.33L21.66 18.33L21.66 30ZM25 29.53C24.55 29.65 23.99 29.76 23.41 29.84L23.33 18.33L25 18.33L25 29.53L25 29.53Z" fill="#FBBB43" fill-opacity="1.000000" fill-rule="evenodd"/>
	</g>
</svg>
